<svg width="420" height="420" viewBox="0 0 420 420" fill="none" xmlns="http://www.w3.org/2000/svg">
<path d="M176.68 2.32279C180.234 1.77625 185.976 1.02476 189.325 0.683172C192.674 0.409903 201.422 0.0683172 208.667 0C216.459 0 225.891 0.341586 231.906 1.02476C237.442 1.5713 245.165 2.66437 249.129 3.41586C253.094 4.16735 259.655 5.67033 263.824 6.7634C267.993 7.85648 274.555 9.83768 278.519 11.204C282.483 12.5704 288.635 14.9615 292.189 16.4644C295.743 17.9674 301.894 20.8368 305.858 22.8863C309.823 24.8675 316.589 28.6932 320.895 31.4259C325.201 34.0903 332.104 38.8042 336.273 41.9468C340.443 45.0894 347.141 50.6231 351.31 54.3122C355.411 58.0696 361.836 64.4231 365.526 68.5905C369.286 72.6895 374.822 79.4529 377.966 83.6203C381.042 87.7876 385.484 94.0728 387.74 97.6253C389.927 101.178 393.823 107.941 396.283 112.655C398.744 117.369 401.956 124.132 403.46 127.685C404.963 131.237 407.356 137.386 408.723 141.348C410.09 145.311 412.072 151.869 413.165 156.036C414.259 160.204 415.762 166.762 416.514 170.725C417.266 174.687 418.36 182.407 418.906 187.941C419.522 193.543 420 203.449 420 210.007C420 216.566 419.522 226.472 418.975 232.074C418.36 237.607 416.993 246.557 415.899 252.022C414.806 257.488 412.823 265.617 411.456 270.126C410.09 274.635 407.902 281.262 406.535 284.814C405.237 288.367 402.229 295.335 399.906 300.186C397.582 305.036 393.481 312.756 390.815 317.265C388.15 321.774 384.186 327.923 382.067 330.929C379.88 333.935 375.779 339.332 372.908 342.884C370.037 346.437 364.775 352.38 361.221 356.138C357.666 359.827 351.788 365.36 348.234 368.503C344.68 371.577 338.802 376.291 335.248 378.956C331.694 381.62 325.543 385.787 321.579 388.247C317.614 390.774 310.574 394.737 305.858 397.128C301.142 399.587 293.966 402.867 289.797 404.575C285.627 406.282 279.339 408.605 275.785 409.835C272.231 410.996 265.738 412.841 261.432 413.934C257.126 415.027 250.018 416.53 245.712 417.282C241.406 418.033 233.819 418.989 228.967 419.468C223.294 419.946 214.272 420.151 204.02 419.878C193.084 419.604 185.155 419.058 179.072 418.17C174.22 417.418 167.863 416.257 165.061 415.642C162.259 415.027 156.586 413.524 152.417 412.431C148.247 411.27 141.071 408.947 136.355 407.239C131.639 405.531 122.412 401.432 115.85 398.153C109.289 394.873 99.7201 389.408 94.6623 386.061C89.6046 382.781 82.2229 377.453 78.2588 374.31C74.2945 371.167 66.5712 364.131 61.1033 358.665C55.6355 353.2 48.5956 345.48 45.4516 341.518C42.3076 337.555 37.1131 330.314 33.9007 325.463C30.6884 320.544 25.4939 311.663 22.4866 305.651C19.4109 299.639 15.5151 291.168 13.8063 286.864C12.0976 282.56 9.6371 275.318 8.27014 270.809C6.97152 266.3 5.12612 259.059 4.16924 254.755C3.21237 250.451 1.91375 243.209 1.23027 238.7C0.273393 232.21 0 226.198 0 210.007C0 193.884 0.273393 187.736 1.23027 181.314C1.91375 176.805 3.21237 169.563 4.23759 165.259C5.19447 160.955 6.97152 153.85 8.20179 149.546C9.50041 145.242 12.2343 137.386 14.3531 132.125C16.4719 126.865 20.4361 118.257 23.1017 112.997C25.8356 107.736 30.7567 99.2649 34.1741 94.2094C37.5915 89.154 42.786 81.9123 45.7933 78.1549C48.8007 74.4658 54.2002 68.3172 57.8226 64.5598C61.4451 60.734 67.4597 54.9954 71.1505 51.7844C74.8413 48.5735 80.9927 43.6547 84.7518 40.8537C88.511 38.0527 94.5256 33.9537 98.0797 31.7675C101.634 29.513 108.264 25.7556 112.775 23.4328C117.286 21.0417 124.325 17.6942 128.495 15.9862C132.664 14.2783 140.182 11.4773 145.24 9.906C150.298 8.26638 158.021 6.14855 162.327 5.12379C166.633 4.16735 173.126 2.93764 176.68 2.32279Z" fill="#EC796B"/>
<path d="M184.882 11.6141C188.436 11.2042 192.469 10.7259 193.767 10.6576C195.066 10.521 201.832 10.3844 208.804 10.316C215.844 10.2477 225.549 10.6576 230.675 11.2042C235.733 11.6824 243.935 12.9121 248.788 13.8685C253.64 14.825 261.501 16.7379 266.217 18.1042C270.933 19.4705 278.793 22.2032 283.645 24.1844C288.498 26.0973 296.221 29.5815 300.732 31.9043C305.243 34.2271 312.147 38.1212 316.111 40.5806C320.075 43.1083 326.841 47.7539 331.147 51.0331C335.863 54.5856 343.792 61.6906 350.968 68.9322C358.213 76.1055 365.322 84.0303 368.876 88.7442C372.156 93.0482 376.804 99.8116 379.333 103.774C381.793 107.736 385.689 114.636 388.013 119.145C390.337 123.654 393.823 131.306 395.736 136.225C397.719 141.144 400.453 148.932 401.819 153.646C403.186 158.359 405.1 166.148 406.057 171.066C407.014 175.917 408.244 184.115 408.723 189.171C409.269 194.226 409.748 203.449 409.748 209.666C409.748 215.883 409.474 224.149 409.064 228.111C408.654 232.074 407.902 238.359 407.287 242.116C406.672 245.874 405.305 252.637 404.28 257.146C403.186 261.655 401.204 268.692 399.837 272.859C398.47 277.026 396.215 282.97 394.916 286.181C393.618 289.392 390.337 296.292 387.671 301.552C384.937 306.813 380.016 315.284 376.599 320.34C373.25 325.463 367.714 332.978 364.296 337.077C360.879 341.176 355.069 347.666 351.31 351.424C347.551 355.181 340.921 361.193 336.615 364.677C332.309 368.23 324.586 373.9 319.528 377.248C314.47 380.595 305.243 385.856 299.024 388.93C292.804 392.004 283.85 395.967 278.998 397.743C274.213 399.519 266.217 402.047 261.227 403.345C256.306 404.643 248.856 406.283 244.687 407.034C240.518 407.786 233.136 408.742 228.283 409.22C222.61 409.698 213.862 409.903 204.02 409.63C195.134 409.425 185.634 408.81 181.465 408.127C177.501 407.512 170.939 406.283 166.77 405.395C162.601 404.506 156.449 402.935 153.1 401.979C149.751 400.954 144.01 399.109 140.456 397.743C136.902 396.377 130.955 393.986 127.265 392.346C123.642 390.706 117.491 387.632 113.595 385.514C109.767 383.396 103.274 379.366 99.1051 376.633C94.9358 373.9 88.2377 368.981 84.0684 365.634C79.8992 362.355 72.8593 355.933 68.3483 351.424C63.8373 346.915 57.4126 339.878 54.1319 335.711C50.7828 331.544 45.8618 324.849 43.1278 320.681C40.3939 316.514 36.4297 310.092 34.3109 306.335C32.2605 302.577 29.1848 296.429 27.4761 292.671C25.8357 288.914 23.3752 282.902 22.0082 279.349C20.6412 275.797 18.7958 270.058 17.7706 266.711C16.8137 263.363 15.2417 257.214 14.3532 253.047C13.4647 248.88 12.2344 242.321 11.6193 238.359C10.9358 234.192 10.3207 224.695 10.1156 215.814C9.84222 206.045 10.0473 197.164 10.5257 191.562C11.0041 186.711 12.0977 178.65 12.9862 173.799C13.9431 168.88 15.7202 161.092 17.0188 156.378C18.3174 151.664 20.4362 144.764 21.8715 141.007C23.2385 137.249 27.066 128.641 30.4151 121.878C34.0375 114.363 39.0953 105.619 43.2645 99.3334C47.0237 93.7314 52.6282 86.0115 55.7723 82.2541C58.9163 78.4966 64.5892 72.3481 68.3483 68.5906C72.1075 64.8332 78.5322 59.0262 82.7015 55.6104C86.8024 52.1945 94.3207 46.6608 99.4468 43.3133C104.505 39.8974 113.253 34.7736 118.926 31.9043C124.531 29.035 132.732 25.3458 137.038 23.6379C141.344 21.93 148.589 19.4706 153.1 18.1725C157.611 16.8745 165.129 15.0299 169.846 14.0735C174.562 13.117 181.328 12.024 184.882 11.6141Z" fill="#0C0C4F"/>
<path d="M324.449 194.841C326.021 193.68 328.618 192.245 330.122 191.63C331.626 191.084 334.838 190.605 337.298 190.537C339.827 190.537 343.313 191.015 345.5 191.699C348.029 192.518 350.421 194.09 353.018 196.412C355.411 198.667 357.324 201.195 358.418 203.586C359.307 205.635 360.195 208.983 360.332 211.032C360.605 213.423 360.332 216.293 359.58 218.889C358.965 221.212 357.324 224.491 355.889 226.404C354.454 228.317 351.652 230.776 349.601 232.074C347.551 233.235 344.133 234.602 342.083 235.012C340.032 235.422 336.957 235.558 335.248 235.285C333.539 235.08 330.6 234.123 328.755 233.304C326.909 232.484 323.97 230.571 322.398 229.068C320.758 227.633 318.639 224.696 317.614 222.646C316.521 220.255 315.769 217.317 315.564 214.448C315.359 211.442 315.632 208.914 316.315 206.592C316.931 204.679 318.366 201.809 319.46 200.102C320.553 198.394 322.809 196.071 324.449 194.841Z" fill="#EC796B"/>
<path d="M227.258 325.532C228.966 323.961 231.564 322.321 233.067 321.911C234.708 321.365 238.262 321.228 241.953 321.365C245.302 321.57 248.309 321.911 248.582 322.184C248.856 322.526 247.625 323.824 245.917 325.122C244.14 326.42 241.201 329.358 239.355 331.612C237.578 333.867 233.956 338.785 231.359 342.543C228.761 346.3 224.866 351.356 222.678 353.747C220.491 356.138 216.595 359.554 213.93 361.262C211.264 363.038 207.163 365.156 204.703 365.976C202.242 366.796 198.756 367.615 196.843 367.889C194.997 368.094 191.443 367.957 188.983 367.547C186.522 367.069 182.558 365.771 180.097 364.541C177.363 363.243 173.946 360.715 171.212 358.051C168.752 355.66 167.248 353.952 167.795 354.225C168.303 354.479 169.813 355.44 171.23 356.342L171.554 356.548C173.058 357.573 175.791 358.939 177.705 359.622C179.551 360.237 182.968 360.784 185.224 360.784C187.479 360.784 191.033 360.305 193.084 359.691C195.134 359.144 198.346 357.709 200.26 356.616C202.106 355.523 205.318 353.2 207.368 351.356C209.419 349.511 212.836 345.686 214.887 342.885C217.005 340.015 219.944 335.643 221.448 333.047C222.952 330.451 225.549 327.103 227.258 325.532Z" fill="#EC796B"/>
<path fill-rule="evenodd" clip-rule="evenodd" d="M109.357 84.0303C111.134 84.0303 113.048 85.6016 122.685 95.166C128.905 101.315 135.056 106.917 136.355 107.531C137.653 108.215 141.071 108.966 143.873 109.171C147.427 109.513 149.956 110.196 152.075 111.425C153.784 112.382 156.313 114.5 157.748 116.139C159.183 117.779 161.507 121.605 162.942 124.611C164.446 127.617 165.95 131.647 166.36 133.492C166.77 135.405 167.385 138.957 168.137 145.994L165.745 146.404C164.446 146.609 160.824 146.814 152.075 146.814L152.212 138.479C152.28 132.74 152.007 129.53 151.391 128.368C150.913 127.412 149.888 125.909 149.068 125.089C148.316 124.201 146.744 122.971 145.582 122.425C144.42 121.81 140.661 121.195 130.819 120.512L120.977 110.606C111.544 101.178 111.134 100.563 111.134 97.967C111.134 96.2591 110.724 94.8244 109.972 94.2095C109.084 93.3897 107.99 93.3214 105.188 93.7313C101.839 94.1412 101.292 94.0729 99.4468 92.5016C98.2849 91.5452 97.3964 90.1788 97.3964 89.4273C97.3964 88.6758 98.2165 87.5145 99.2418 86.8996C100.267 86.2164 102.522 85.3283 104.231 84.8501C105.94 84.4402 108.195 84.0303 109.357 84.0303ZM279.203 88.061C281.458 88.061 283.235 89.7006 307.636 114.158C321.989 128.573 334.086 141.075 334.565 142.032C335.043 142.988 335.18 144.354 334.975 145.106C334.77 145.857 330.601 150.435 316.794 164.235L308.524 156.037C304.013 151.528 291.027 138.342 259.04 105.755L267.925 96.8739C275.922 88.9491 277.016 88.061 279.203 88.061ZM91.245 95.5759C91.9968 95.5759 93.3638 96.464 94.3207 97.6254C95.2776 98.7868 95.8927 100.221 95.756 100.836C95.6193 101.519 95.2776 103.159 95.0725 104.457C94.8675 105.755 94.9358 107.258 95.2092 107.736C95.4826 108.215 97.0546 108.761 98.7633 108.966C101.634 109.308 102.454 109.922 122.07 129.393L122.549 136.635C122.959 142.851 123.232 144.149 124.804 146.199C125.761 147.497 127.675 149.068 129.042 149.683C131.297 150.776 133.689 150.913 150.913 150.776C168.273 150.571 170.529 150.708 173.946 151.869C175.997 152.552 179.893 154.192 182.49 155.558C185.156 156.856 189.393 159.452 191.99 161.434C194.588 163.347 200.671 169.29 205.523 174.619C210.308 180.016 214.272 184.593 214.272 184.866C214.272 185.208 211.606 188.077 202.311 197.369L195.476 190.468C191.717 186.711 187.479 183.022 186.112 182.27C184.062 181.246 182.08 180.972 176.68 180.972C171.212 180.972 169.299 180.699 167.112 179.606C165.608 178.855 161.849 175.849 153.1 167.582L147.291 167.036C144.078 166.762 139.977 166.216 138.064 165.874C136.218 165.464 133.142 164.713 131.229 164.098C129.383 163.483 125.419 161.639 122.412 159.862C119.473 158.154 116.055 155.49 114.825 153.987C113.595 152.484 112.228 150.503 111.749 149.546C111.271 148.59 110.656 145.379 110.383 142.373C110.041 138.889 109.289 135.815 108.332 133.834C107.375 131.989 102.591 126.524 96.3028 120.17C86.2556 110.059 85.8455 109.444 85.8455 106.848C85.8455 105.345 86.1872 103.022 86.6657 101.724C87.1441 100.426 88.0326 98.5135 88.7161 97.4204C89.3313 96.3957 90.4932 95.5759 91.245 95.5759ZM257.058 109.922C257.195 109.922 270.044 122.629 313.719 166.489L306.2 168.197C302.099 169.154 297.93 169.768 296.973 169.632C296.016 169.427 292.736 166.762 283.85 158.086L284.602 155.695C285.012 154.397 285.354 152.416 285.354 151.254C285.354 150.093 285.012 148.043 284.671 146.609C284.26 145.242 282.688 142.715 281.116 141.007C279.203 139.026 277.084 137.523 275.102 136.839C273.393 136.293 271.274 135.883 270.317 135.883C269.361 135.883 267.447 136.293 263.483 137.591L259.04 133.15C256.579 130.691 254.256 127.822 253.777 126.66C253.162 124.952 253.299 123.381 254.529 117.779C255.418 114.022 256.238 110.742 256.443 110.401C256.579 110.127 256.853 109.922 257.058 109.922ZM270.181 141.417C271.343 141.348 273.188 141.758 274.282 142.305C275.307 142.783 276.947 144.149 278.041 145.379C279.476 147.019 279.886 148.18 279.886 150.571C279.886 152.279 279.476 154.465 278.929 155.49C278.383 156.583 242.91 192.381 200.124 235.08C157.338 277.778 121.523 313.098 120.498 313.508C119.404 313.849 117.696 314.191 116.534 314.191C115.44 314.191 113.663 313.781 112.638 313.235C111.544 312.756 109.904 311.39 108.879 310.16C107.375 308.521 106.965 307.359 106.965 304.968C106.965 303.26 107.375 301.074 107.922 299.981C108.469 298.956 143.942 263.158 186.728 220.46C229.514 177.761 265.26 142.441 266.217 142.1C267.173 141.758 268.95 141.417 270.181 141.417ZM156.518 177.557C156.723 177.557 158.295 178.786 160.14 180.221C161.917 181.724 164.924 183.637 166.77 184.457C169.23 185.55 171.554 186.028 179.961 186.096L196.433 203.175L183.857 215.746L174.288 206.796C169.025 201.877 163.421 196.139 161.78 194.021C160.208 191.903 158.295 188.556 157.543 186.643C156.791 184.662 156.176 181.792 156.176 180.289C156.176 178.786 156.313 177.557 156.518 177.557ZM84.0684 180.289C85.0253 180.289 85.9138 180.699 86.0505 181.177C86.2556 181.587 87.4859 185.618 88.7845 190.059C90.4248 195.456 91.8601 198.735 93.1588 200.17C94.5941 201.809 97.0546 202.971 104.231 205.43C111.544 208.026 113.458 208.914 113.663 210.007C113.8 210.759 113.663 211.579 113.321 211.852C113.048 212.125 108.811 213.56 103.889 215.131C97.4647 217.112 94.4574 218.41 93.0904 219.708C91.7234 221.075 90.4932 223.944 88.5794 230.161C87.0758 234.875 85.5038 239.11 84.957 239.589C84.4785 239.998 83.5217 240.272 82.9065 240.067C82.018 239.862 81.0611 237.607 79.5575 232.757C78.4639 228.863 77.302 225.105 77.0969 224.354C76.8919 223.602 76.2084 222.031 75.5249 220.938C74.8414 219.845 73.4061 218.479 72.3125 217.932C71.2873 217.385 66.8447 215.814 62.5387 214.38C58.2328 212.945 54.4053 211.51 54.1319 211.237C53.7902 210.895 53.7218 210.076 53.9269 209.324C54.2003 208.231 56.0457 207.411 61.992 205.635C66.2295 204.337 70.8772 202.697 72.3125 202.014C73.7479 201.331 75.3199 199.828 75.935 198.598C76.5501 197.369 78.1221 192.996 79.4208 188.829C80.7877 184.662 81.9496 181.109 82.1547 180.836C82.2914 180.494 83.1799 180.289 84.0684 180.289ZM235.118 207.548L237.1 209.802C238.262 211.032 257.331 232.279 279.476 257.078C307.499 288.23 319.938 302.645 320.075 303.875C320.28 305.241 319.733 306.198 317.888 307.906C316.521 309.067 314.88 310.092 314.265 310.092C313.582 310.092 304.013 301.006 292.189 288.914C280.706 277.3 260.612 256.805 223.499 219.162L235.118 207.548ZM217.826 224.764L245.575 252.91C260.817 268.35 280.98 288.709 290.275 298.136C302.304 310.229 307.225 315.626 307.225 316.719C307.225 317.607 306.2 319.383 304.902 320.681C303.603 321.979 302.099 323.072 301.484 323.072C300.869 323.072 298.955 321.774 297.178 320.135C295.401 318.563 275.512 300.254 252.889 279.417C230.334 258.649 210.649 240.408 206.412 236.309L217.826 224.764ZM227.258 306.676C228.967 306.676 232.316 307.223 234.776 307.974C237.442 308.726 240.654 310.365 242.841 312.073C244.755 313.576 247.352 316.309 248.446 318.085C249.608 319.861 250.496 321.569 250.496 321.842C250.496 322.116 249.813 322.184 248.993 322.047C248.104 321.842 245.302 321.501 242.636 321.228C239.492 320.954 236.553 321.091 234.093 321.706C231.427 322.389 229.445 323.482 227.258 325.463C225.549 327.035 222.952 330.45 221.448 333.047C219.945 335.574 217.006 340.015 214.887 342.816C212.837 345.685 209.419 349.443 207.369 351.287C205.318 353.132 202.174 355.523 200.26 356.616C198.415 357.709 195.134 359.075 193.084 359.69C191.033 360.305 187.479 360.783 185.224 360.783C182.968 360.715 179.619 360.168 177.706 359.554C175.86 358.939 172.579 357.231 170.529 355.796C168.068 354.157 166.018 351.97 164.583 349.579C163.352 347.598 162.259 345.412 161.985 344.729C161.78 344.046 161.985 343.567 162.532 343.499C162.942 343.499 165.198 343.909 167.453 344.319C170.666 344.934 172.579 344.934 175.997 344.251C178.457 343.772 181.396 342.953 182.49 342.338C183.652 341.791 185.771 340.356 187.274 339.127C188.778 337.897 193.289 332.637 197.253 327.444C201.217 322.184 206.002 316.582 207.847 314.942C209.693 313.303 212.768 311.185 214.614 310.229C216.527 309.272 219.398 308.111 221.107 307.632C222.815 307.154 225.549 306.744 227.258 306.676Z" fill="#FAFAFA"/>
<path d="M165.608 161.434C166.223 160.614 167.385 159.589 168.137 159.18C168.889 158.77 170.734 158.565 172.238 158.701C174.152 158.906 175.519 159.658 176.817 161.092C178.116 162.527 178.731 163.962 178.731 165.465C178.731 166.626 178.116 168.676 177.364 169.905C176.476 171.272 175.177 172.296 173.81 172.638C172.58 172.98 170.666 172.98 169.504 172.706C168.342 172.365 166.77 171.34 165.95 170.384C164.856 169.154 164.378 167.856 164.378 165.806C164.378 164.03 164.925 162.254 165.608 161.434Z" fill="#0C0C4F"/>
</svg>
